<?xml version="1.0" encoding="utf-8"?>
<!-- Generator: Adobe Illustrator 25.0.0, SVG Export Plug-In . SVG Version: 6.00 Build 0)  -->
<svg version="1.1" id="Layer_1" xmlns="http://www.w3.org/2000/svg" xmlns:xlink="http://www.w3.org/1999/xlink" x="0px" y="0px"
	 viewBox="0 0 1894 264" style="enable-background:new 0 0 1894 264;" xml:space="preserve">
<style type="text/css">
	.st0{fill:#0867FF;}
	.st1{display:none;fill:#0867FF;}
	.st2{fill:#121828;}
</style>
<g>
	<g>
		<g>
			<polygon class="st0" points="100.6,11.6 100.6,74 100.4,74.2 38,74.2 38,11.6 			"/>
			<path class="st0" d="M288.4,74.2v26.5L265.1,124l-27.8,27.8l-11.5,11.5H100.6v-0.2l54.2-54.2c2.5-2.5,5.3-4.4,8.4-5.8
				c0,0,0,0,0,0c2-0.9,4-1.5,6.1-1.9c1.5-0.3,3-0.4,4.4-0.5h52V74.2H100.6V74l54.2-54.2c2.5-2.5,5.3-4.4,8.4-5.8c0,0,0,0,0,0
				c3.6-1.6,7.5-2.4,11.4-2.4h53C261.3,12.5,288.4,40.2,288.4,74.2z"/>
			<path class="st0" d="M100.6,74.2v88.9l-0.2,0.2h0.2v89.1H38V148.2c0-7.1,2.7-14.3,8.2-19.7l27.7-27.7l26.5-26.5H100.6z"/>
			<path class="st0" d="M288.4,189.8L288.4,189.8L288.4,189.8c0,9.5-2.1,18.5-5.9,26.5c-3.8,8.1-9.2,15.2-15.9,20.9c0,0,0,0,0,0
				c-6.1,5.3-13.2,9.4-21.1,12c-5.7,1.9-11.8,3-18.1,3.2c-0.4,0-0.8,0-1.3,0c-0.2,0-0.3,0-0.5,0H100.5l0,0h0.1v-0.1l0,0l54.3-54.3
				c2.5-2.5,5.3-4.4,8.3-5.7c0,0,0,0,0,0c3.6-1.6,7.5-2.4,11.4-2.4h51.2v0h0v-26.5l0,0h62.6c0,0,0,0,0,0V189.8z"/>
		</g>
		<path class="st1" d="M225.8,185.3v4.5h0v0h-4.3C223.8,189.6,225.7,187.7,225.8,185.3z"/>
	</g>
	<g>
		<path class="st2" d="M379.2,222.6V48.4h70.6c36.2,0,52.1,22.8,52.1,45.4c0,20-11.5,32.8-26.9,39.3c20.3,7.7,30.8,25.7,30.8,43.4
			c0,23.3-18,46.2-54.6,46.2H379.2z M405.7,72.2v49.3h37.7c22.8,0,32.1-12.6,32.1-24.9c0-18-17.4-24.4-32.1-24.4H405.7z
			 M405.7,145.1v53.6h39c22.8,0,34.6-13.9,34.6-27.5c0-18.7-18.7-26.2-34.6-26.2H405.7z"/>
		<path class="st2" d="M632.7,135.8v86.7h-23.1l-2.6-13.9v-0.3c-9.7,9.5-23.6,16.7-42.3,16.7c-23.9,0-47.2-13.6-47.2-40
			c0-20.3,16.9-41,50.5-41h39v-8c0-16.2-14.6-23.9-29.2-23.9c-14.1,0-28.2,7.2-29.5,21.8h-25.7c1-23.9,20.3-45.9,55.2-45.9
			C613.5,88.1,632.7,111.5,632.7,135.8z M566.8,164.6c-14.9,0-22.8,8.7-23.1,17.7c-0.3,9.7,8.2,19.8,27.2,19.8
			c16.7,0,36.2-12.6,36.2-34.6v-2.8H566.8z"/>
		<path class="st2" d="M731,127.9c0-12.1-12.8-15.7-26.2-15.7c-12.8,0-26.2,5.9-26.2,15.1c0,26.7,81.3,6.4,81.3,56.7
			c0,26.4-27.7,41-55.4,41c-27.5,0-54.9-14.6-54.9-44.9h26.2c0,14.4,14.6,20.5,29,20.5c14.4,0,28.7-5.9,28.7-16.7
			c0-25.1-81.3-6.9-81.3-56.2c0-24.9,25.4-39.5,51.6-39.5c26.4,0,53.4,8.2,53.4,39.5H731z"/>
		<path class="st2" d="M855.9,224.4c-2.8,0.8-13.6,0.8-16.7,0.8c-29.5,0-41.3-15.1-41.3-46.4V113h-26.2V97.1
			c17.2,0,35.4-7.7,35.4-38h17.2v31.6h32.6V113h-32.6v65.2c0,16.7,6.4,21,20.3,21H859L855.9,224.4z"/>
		<path class="st2" d="M927.2,224.6c-35.7,0-56.4-29.8-56.4-56.2v-23.6c0-26.4,22.3-56.7,58-56.7h9.5c35.7,0,58,30.3,58,56.7v23.6
			c0,26.4-20.8,56.2-56.4,56.2H927.2z M897.2,168.4c0,21.3,18,32.3,36.2,32.3c18.2,0,36.4-11,36.4-32.3v-23.6
			c0-21.8-18.2-32.6-36.4-32.6c-19.5,0-36.2,12.1-36.2,32.6V168.4z"/>
		<path class="st2" d="M1099.9,222.6v-77.7c0-21.6-14.9-32.6-29.5-32.6c-14.4,0-28.2,10.5-28.2,31v79.3h-26.4V90.7h22.1l4.4,15.4
			c9.7-11.8,24.1-18,38-18c16.2,0,32.1,8.2,40.3,26.4c9.5-17.2,26.9-26.4,43.9-26.4c23.3,0,45.9,17.7,45.9,56.7v77.7h-26.4v-77.7
			c0-21.8-14.6-32.6-29-32.6c-14.1,0-28.5,10.3-28.5,31v79.3H1099.9z"/>
		<path class="st2" d="M1403.7,186.1h-73.9l-12.6,36.4h-28.5l65.7-174.2h24.6l65.7,174.2h-28.5L1403.7,186.1z M1395.5,162.3
			l-28.7-82.9l-28.7,82.9H1395.5z"/>
		<path class="st2" d="M1475.8,90.7v77.7c0,14.6,11.5,32.3,33.6,32.3c20.3,0,33.9-16.2,33.9-30.8V90.7h26.4v131.9h-23.9l-2.6-14.4
			c-10.3,10.5-24.1,16.9-38,16.9c-35.7,0-55.9-21-55.9-56.7V90.7H1475.8z"/>
		<path class="st2" d="M1585.3,168.4v-23.6c0-26.4,20.5-56.7,56.2-56.7c15.1,0,28.2,6.4,37.7,16.4V38.9h26.4v183.7h-23.9l-2.6-14.1
			c-10.3,10-23.9,16.7-37.7,16.7C1605.9,225.1,1585.3,194.9,1585.3,168.4z M1611.8,168.4c0,14.6,11.3,32.3,33.6,32.3
			c20,0,33.9-16.2,33.9-30.8v-25.1c0-14.6-13.9-32.6-33.9-32.6c-22.3,0-33.6,18-33.6,32.6V168.4z"/>
		<path class="st2" d="M1754.4,39.1v27.2h-26.7V39.1H1754.4z M1754.4,90.7v131.9H1728V90.7H1754.4z"/>
		<path class="st2" d="M1852.9,224.4c-2.8,0.8-13.6,0.8-16.7,0.8c-29.5,0-41.3-15.1-41.3-46.4V113h-26.2V97.1
			c17.2,0,35.4-7.7,35.4-38h17.2v31.6h32.6V113h-32.6v65.2c0,16.7,6.4,21,20.3,21h14.4L1852.9,224.4z"/>
	</g>
</g>
</svg>
